<?xml version="1.0" ?><svg style="enable-background:new 0 0 512 512;" version="1.1" viewBox="0 0 512 512" xml:space="preserve" xmlns="http://www.w3.org/2000/svg" xmlns:xlink="http://www.w3.org/1999/xlink"><style type="text/css">
	.st0{fill:#384C1E;}
	.st1{fill:#6BBF23;}
	.st2{opacity:0.45;fill:#231F20;}
	.st3{fill:#FFFFFF;}
</style><g id="Edges"/><g id="Background_Bottom"><g><path class="st0" d="M492.3,443.1c0,34.2-27.7,61.9-61.9,61.9H80.7c-34.2,0-61.9-27.7-61.9-61.9V93.4c0-34.2,27.7-61.9,61.9-61.9    h349.7c34.2,0,61.9,27.7,61.9,61.9V443.1z"/></g></g><g id="Background"><path class="st1" d="M492.3,418.4c0,34.2-27.7,61.9-61.9,61.9H80.7c-34.2,0-61.9-27.7-61.9-61.9V68.6c0-34.2,27.7-61.9,61.9-61.9   h349.7c34.2,0,61.9,27.7,61.9,61.9V418.4z"/></g><g id="Shadow"><path class="st2" d="M355.1,139.1c-17.3-19.2-40.5-33-69.4-39.1c-8.5-1.8-17-3.2-25.5-4.8c-5.9,0-11.7,0-17.6,0   c0.2,1.4,0.2,2.9,0.6,4.3c3.2,11.8,12.3,45.5,19.7,72.6l-19.6-19.6c-2.2-3.9-5.4-3.2-15-1.2c-68,14-115,78.6-106.4,146.7   c4.5,35.9,19.6,64.5,44.4,85.8l96.3,96.3c0,0,116.6,0,167.8,0c34.2,0,61.9-27.7,61.9-61.9c0-30.2,0-142.1,0-142.1L355.1,139.1z"/></g><g id="Symbol"><path class="st3" d="M236.4,417.3c-11.9-3.7-24.2-5.6-35.6-11.1c-45.6-22-72.5-57.8-78.8-108.1c-8.6-68.1,38.4-132.8,106.4-146.7   c14.4-3,14.4-3.1,18.2,10.9c2.6,9.7,5.1,19.4,8,29c1,3.4,0.8,4.6-3.3,4.9c-18.9,1.3-36.1,7.4-50.6,19.8   c-27.3,23.4-37.7,53.3-29.1,87.9c8.8,35.5,32.6,57.6,68.8,64.3c54.6,10.2,100.2-32.3,102-80.9c0.5-14.3-3.1-27.7-6.6-41.2   c-7.1-27.1-14.2-54.3-21.3-81.4c-0.1-0.6,0-1.2,0-2.4c9.6,4.3,17.9,9.8,25.6,16.1c30.9,25.6,48.2,58.5,50.1,98.7   c3.3,68.5-45.9,127.9-112.8,138.8c-1.2,0.2-2.6-0.3-3.3,1.2C261.5,417.3,248.9,417.3,236.4,417.3z"/><path class="st3" d="M260.3,95.2c8.5,1.6,17.1,3,25.5,4.8c57.5,12.2,92.8,55,102.6,109.9c0.3,1.8,0.2,3.6-0.1,5.6   c-21.4-37.4-51.2-64.3-93.6-76.6c-0.4,3.9,22,86.9,32.1,125.4c12.6,48.3-25.5,94.9-75.5,92.3c-38.6-2-70.8-36.7-69.4-74.8   c1.5-40.6,33.4-72.2,73-72.3c4.4,0,8.8,0.2,13.1,1c4.4,0.8,5.6,0.2,4.2-4.5c-4.9-17.1-24.1-88.2-29-106.6c-0.4-1.4-0.4-2.9-0.6-4.3   C248.5,95.2,254.4,95.2,260.3,95.2z"/></g></svg>